<?xml version="1.0" encoding="utf-8"?>
<!-- Generator: Adobe Illustrator 24.1.2, SVG Export Plug-In . SVG Version: 6.00 Build 0)  -->
<svg version="1.1" id="Capa_1" xmlns="http://www.w3.org/2000/svg" xmlns:xlink="http://www.w3.org/1999/xlink" x="0px" y="0px"
	 viewBox="0 0 141 41" style="enable-background:new 0 0 141 41;" xml:space="preserve">
<style type="text/css">
	.st0{fill:#67C19D;}
	.st1{fill:#B7B7B7;}
</style>
<g>
	<path class="st0" d="M1.6,32.99V12.58h7.07v20.41H1.6z"/>
	<g>
		<path class="st1" d="M58.86,13.03h6.55v2.91c1.02-1.21,2.06-2.08,3.1-2.59c1.04-0.51,2.3-0.77,3.78-0.77
			c1.59,0,2.84,0.28,3.77,0.85c0.92,0.56,1.68,1.4,2.27,2.52c1.2-1.3,2.29-2.19,3.27-2.66c0.98-0.47,2.2-0.7,3.65-0.7
			c2.13,0,3.8,0.64,4.99,1.91c1.2,1.27,1.79,3.26,1.79,5.97v12.54h-7.07c0,0,0-11.37,0-11.37c0-1.63-1.35-3.04-2.99-3.04
			c-0.89,0-1.62,0.33-2.16,0.98c-0.55,0.65-1.1,1.7-1.1,3.14v10.3h-7.07V22c0-1.63-0.77-3.46-2.69-3.46c-0.88,0-1.6,0.33-2.16,1
			c-0.56,0.67-0.84,1.75-0.84,3.27v10.19h-7.07L58.86,13.03L58.86,13.03z"/>
	</g>
	<g>
		<polygon class="st1" points="115.1,12.58 124.38,12.58 127.62,18.27 131.4,12.58 140.03,12.58 133.06,22.31 140.53,32.99 
			131.4,32.99 127.62,26.42 123.19,32.99 114.71,32.99 122.13,22.31 		"/>
	</g>
	<path class="st0" d="M30.39,15.58c-1.96-2-4.32-3-7.07-3c-1.74,0-3.31,0.35-4.72,1.04v-1.06h-5.67v28.07h5.67v-8.68
		c1.37,0.69,2.89,1.04,4.55,1.04c2.81,0,5.22-0.99,7.21-2.99c1.99-1.99,2.99-4.41,2.99-7.24C33.34,19.98,32.36,17.58,30.39,15.58z
		 M23.14,27.32c-2.51,0-4.54-2.03-4.54-4.54c0-2.5,2.03-4.54,4.54-4.54c2.5,0,4.54,2.03,4.54,4.54
		C27.67,25.29,25.64,27.32,23.14,27.32z"/>
	<path class="st0" d="M53.36,15.58c-1.96-2-4.32-3-7.07-3c-2.93,0-5.4,0.98-7.39,2.94c-2,1.96-3,4.38-3,7.25c0,2.82,1,5.23,3,7.23
		c2,2,4.4,3,7.22,3c2.81,0,5.22-0.99,7.21-2.99c1.99-1.99,2.99-4.41,2.99-7.24C56.3,19.98,55.32,17.58,53.36,15.58z M46.1,27.32
		c-2.51,0-4.54-2.03-4.54-4.54c0-2.5,2.03-4.54,4.54-4.54c2.51,0,4.54,2.03,4.54,4.54C50.63,25.29,48.6,27.32,46.1,27.32z"/>
	<g>
		<g>
			<path class="st1" d="M114.69,20.24c-0.43-1.74-1.31-3.29-2.65-4.65c-1.96-2-4.32-3-7.07-3c-2.93,0-5.4,0.98-7.39,2.94
				c-0.12,0.12-0.24,0.24-0.35,0.36c-0.46,0.49-0.86,1.02-1.2,1.57c-0.22,0.34-0.4,0.7-0.57,1.07c-0.25,0.55-0.45,1.12-0.59,1.71
				c-0.01,0.05-0.02,0.1-0.03,0.15c-0.17,0.76-0.26,1.55-0.26,2.38c0,0.9,0.1,1.76,0.31,2.57c0.43,1.74,1.33,3.29,2.69,4.66
				c2,2,4.4,3,7.22,3c2.82,0,5.22-0.99,7.21-2.99c0.11-0.11,0.21-0.22,0.31-0.33l-4.7-2.5c-0.82,0.53-1.79,0.84-2.83,0.84
				c-1.96,0-3.67-1.08-4.56-2.68h14.46c0.01-0.05,0.02-0.11,0.04-0.16c0.17-0.77,0.27-1.57,0.27-2.41
				C114.99,21.88,114.89,21.04,114.69,20.24z M99.95,20.8c0.78-1.9,2.65-3.24,4.83-3.24c2.19,0,4.05,1.34,4.84,3.24H99.95z"/>
		</g>
	</g>
	<path class="st0" d="M5.13,9.36c-2.51,0-4.54-2.03-4.54-4.54c0-2.5,2.03-4.54,4.54-4.54c2.5,0,4.54,2.03,4.54,4.54
		C9.67,7.33,7.64,9.36,5.13,9.36z"/>
</g>
</svg>
