<svg height="495pt" viewBox="-104 0 495 495.84" width="495pt" xmlns="http://www.w3.org/2000/svg"><path d="m32.421875 327.992188h31.917969v48.238281l-16-8-16 8v-48.238281zm0 0" fill="#ed5565"/><path d="m192.09375 383.921875c4.40625 0 8 3.597656 8 8v24.015625c0 4.398438-3.59375 8-8 8h-64c-4.394531 0-8-3.601562-8-8v-24.015625c0-4.402344 3.605469-8 8-8zm0 0" fill="#e6e9ed"/><path d="m288.355469 31.921875v32.078125h-255.933594c-17.691406 0-32-14.320312-32-32s14.230469-31.921875 31.917969-32h256.015625zm0 0" fill="#e6e9ed"/><path d="m103.453125 333.601562c.558594.796876 1.125 1.597657 1.6875 2.398438h-72.800781c-17.6875-.078125-31.917969-14.320312-31.917969-32v-272c0 17.679688 14.308594 32 32 32h255.917969v272h-72.640625c5.441406-9.441406 8.5625-20.320312 8.5625-32v-120c0-8.878906-7.203125-16-16-16-8.890625 0-16 7.121094-16 16v-32c0-8.878906-7.203125-16-16-16-8.890625 0-16 7.121094-16 16v-24c0-8.878906-7.203125-16-16-16-8.890625 0-16 7.121094-16 16v24c0-8.878906-7.203125-16-16-16-8.890625 0-16 7.121094-16 16v104l-21.203125-20.238281c-6.488282-6-16.40625-6.234375-22.636719 0-6.234375 6.238281-4.875 15.445312 0 22.636719zm0 0" fill="#656d78"/><path d="m75.058594 235.753906 21.203125 20.238282v-104c0-8.878907 7.109375-16 16-16 8.796875 0 16 7.121093 16 16v-24c0-8.878907 7.109375-16 16-16 8.796875 0 16 7.121093 16 16v24c0-8.878907 7.109375-16 16-16 8.796875 0 16 7.121093 16 16v32c0-8.878907 7.109375-16 16-16 8.796875 0 16 7.121093 16 16v120c0 11.679687-3.128907 22.558593-8.5625 32-5.6875 9.679687-13.765625 17.839843-23.4375 23.441406v24.488281h-64.082031v-25.523437c-8.96875-5.757813-16.734376-13.597657-22.96875-22.398438h-.078126c-.5625-.800781-1.128906-1.601562-1.6875-2.398438l-51.035156-75.203124c-4.871094-7.191407-6.230468-16.398438 0-22.636719 6.242188-6.242188 16.160156-6.007813 22.648438-.007813zm0 0" fill="#eac6bb"/><g fill="#d3b1a9"><path d="m192.226562 239.992188v-88.167969c0 .0625.035157.113281.035157.167969v32c0-5.929688 3.199219-11.023438 7.964843-13.792969v61.785156c0 4.429687-3.574218 8.007813-8 8.007813zm0 0"/><path d="m160.226562 239.992188v-112.167969c0 .0625.035157.113281.035157.167969v24c0-5.929688 3.199219-11.023438 7.964843-13.792969v93.785156c0 4.429687-3.574218 8.007813-8 8.007813zm0 0"/><path d="m136.226562 231.992188c0 4.421874-3.574218 8-8 8-.03125 0-.0625-.023438-.09375-.023438l.09375-96.160156h.015626v-8c4.363281.0625 7.890624 3.589844 7.890624 7.976562h.09375zm0 0"/></g><path d="m208.09375 487.839844v-48c0-4.398438 0-11.601563 0-16v-7.917969c0-4.402344-3.59375-8-8-8h-80c-4.394531 0-8 3.597656-8 8v79.917969h96.015625v-8zm0 0" fill="#656d78"/><path d="m200.109375 423.902344c-4.425781 0-8 3.578125-8 8 0 4.425781 3.574219 8 8 8h7.984375v-.0625c0-4.382813 0-11.527344 0-15.9375zm0 0" fill="#ffce54"/><path d="m160.09375 48h-127.671875c-8.832031 0-16-7.175781-16-16h-16c0 17.679688 14.308594 32 32 32h255.933594v-16zm0 0" fill="#656d78"/><path d="m32.421875 16h255.933594v-16h-256.015625c-17.6875.078125-31.917969 14.320312-31.917969 32h16c0-8.785156 7.167969-15.960938 16-16zm0 0" fill="#545c66"/></svg>