<svg id="Layer_1" enable-background="new 0 0 512 512" height="512" viewBox="0 0 512 512" width="512" xmlns="http://www.w3.org/2000/svg"><g><path d="m256 21.993c-135.311 0-245.002 109.691-245.002 245.002 0 97.623 57.102 181.901 139.723 221.281h210.559c82.621-39.379 139.723-123.658 139.723-221.281-.001-135.311-109.692-245.002-245.003-245.002z" fill="#49b1f7"/><path d="m1.688 126.166c8.431-26.433 33.769-37.94 47.512-36.371 9.515 1.087 15.808 15.32 18.779 23.974 1.145 3.333 4.786 5.097 8.11 3.923 6.432-2.271 16.036-4.016 19.145 4.152 3.98 10.459-14.576 27.797-17.96 41.995-3.101 3.827-8.687 9.818-16.056 13.943-5.25 2.939-7.731 9.123-5.901 14.703 4.85 14.783 14.482 41.079 24.5 51.098 6.648 6.648 8.521 15.144 5.14 23.31-2.519 6.081-7.492 10.852-13.211 13.132-9.603-9.011-17.807-19.669-23.813-31.329-7.852-15.242-14.732-32.471-19.564-51.665-.785-3.116-2.282-6.012-4.393-8.435-8.454-9.7-30.152-37.776-22.288-62.43z" fill="#914330"/><path d="m78.755 244.643c-10.133-10.132-19.725-36.023-24.865-51.69-2.089-6.367.748-13.207 6.595-16.48 11.159-6.247 18.27-17.125 18.27-17.125l.009-.006c-1.929 4.643-2.749 9.079-1.261 12.991 3.057 8.034 9.001 31.051 30.943 58.059 1.253 1.542 2.936 2.915 4.816 3.824 5.209 2.52 10.837 4.959 16.899 7.257l-26.082 60.484c-3.728-1.93-7.543-4.015-11.422-6.273-7.924-4.614-15.389-10.303-22.132-16.811 12.302-4.449 21.117-21.343 8.23-34.23z" fill="#7c382a"/><path d="m510.312 126.166c-8.431-26.433-33.769-37.94-47.512-36.371-9.515 1.087-15.808 15.32-18.779 23.974-1.145 3.333-4.786 5.097-8.11 3.923-6.432-2.271-16.036-4.016-19.145 4.152-3.98 10.459 14.576 27.797 17.96 41.995 3.101 3.827 8.687 9.818 16.056 13.943 5.25 2.939 7.731 9.123 5.901 14.703-4.85 14.783-14.482 41.079-24.5 51.098-6.649 6.648-8.522 15.144-5.14 23.31 2.519 6.081 7.492 10.852 13.21 13.132 9.603-9.011 17.807-19.669 23.813-31.329 7.852-15.242 14.732-32.471 19.564-51.665.784-3.116 2.282-6.012 4.393-8.435 8.454-9.7 30.153-37.776 22.289-62.43z" fill="#a5533a"/><path d="m433.245 244.643c10.132-10.132 19.725-36.023 24.865-51.691 2.089-6.367-.748-13.207-6.595-16.48-11.159-6.247-18.27-17.125-18.27-17.125l-.01-.006c1.929 4.643 2.749 9.079 1.261 12.991-3.057 8.034-9.001 31.051-30.943 58.059-1.253 1.542-2.936 2.915-4.816 3.824-5.209 2.52-10.837 4.959-16.899 7.257l26.082 60.484c3.728-1.93 7.543-4.015 11.422-6.273 7.923-4.614 15.389-10.303 22.132-16.811-12.301-4.448-21.116-21.342-8.229-34.229z" fill="#914330"/><path d="m412.486 295.881c-4.288-15.328-12.052-35.979-22.737-53.014-1.81-2.885-5.39-4.138-8.579-2.94-25.262 9.485-58.078 16.484-100.27 16.484-15.259 0-30.517 0-45.776 0l10.08 41.839c-3.22 1.006-11.29 4.027-19.432 11.015-9.476 8.134-20.772 23.392-20.772 49.895 0 .311-.005.638-.006.952h150.119c-1.001-8.292-2.156-16.734-3.492-25.247-.8-5.097 2.358-9.99 7.349-11.298 10.295-2.699 28.612-8.447 49.912-19.38 3.025-1.552 4.52-5.031 3.604-8.306z" fill="#ff4155"/><path d="m247 299.297-10.332-42.887c-1.856 0-3.712 0-5.568 0-42.192 0-75.009-6.999-100.271-16.484-3.188-1.197-6.769.055-8.578 2.94-10.685 17.035-18.449 37.686-22.737 53.014-.916 3.274.579 6.754 3.604 8.307 21.301 10.933 39.617 16.682 49.912 19.38 4.991 1.308 8.149 6.2 7.349 11.297-1.336 8.513-2.491 16.955-3.492 25.248h49.609c.001-.317.004-.638.004-.952 0-50.203 40.5-59.863 40.5-59.863z" fill="#e80054"/><path d="m359.549 409.364h-155.21c.389 17.317 2.098 35.421 7.314 51.987 7.158 22.734 19.777 39.446 38.269 50.561 2.021.049 4.045.086 6.078.086 37.688 0 73.383-8.519 105.279-23.721.039-24.414-.276-55.201-1.73-78.913z" fill="#ff4155"/><path d="m205.825 409.364h-53.374c-1.454 23.712-1.769 54.499-1.73 78.912 31.063 14.806 65.736 23.248 102.337 23.68-38.815-21.835-46.377-63.819-47.233-102.592z" fill="#e80054"/><path d="m204.648 377.647c-.278 10.117-.573 21.233-.284 32.669h155.242c-.953-15.804-2.411-33.131-4.609-51.155h-149.997c0 5.705-.171 11.913-.352 18.486z" fill="#deeeff"/><path d="m206.5 359.16h-49.497c-2.198 18.024-3.657 35.351-4.609 51.155h53.453c-.464-18.604.653-36.514.653-51.155z" fill="#bec8f7"/><path d="m256 299.297c-22.052 0-40.094-18.042-40.094-40.094v-41.254c0-22.052 18.042-40.094 40.094-40.094 22.052 0 40.094 18.042 40.094 40.094v41.254c0 22.052-18.042 40.094-40.094 40.094z" fill="#7c382a"/><path d="m332.304 33.394c-3.406-1.808-6.507-4.133-9.16-6.932-9.901-10.448-40.043-35.403-93.428-23.149l1.534.826.088.044c.17.078 17.027 7.887 17.324 18.559.178 6.406-5.676 12.774-17.398 18.927-11.163 5.859-17.331 13.412-18.333 22.448-1.926 17.37 15.844 34.259 19.532 37.559l-6.021 40.698h134.078c4.888-16.083 21.521-82.584-28.216-108.98z" fill="#45304c"/><path d="m234.066 101.087s-43.066-36.59-2.104-58.09c40.961-21.5 0-40.18 0-40.18-4.968 1.057-10.137 2.429-15.52 4.177-68.569 22.263-96.996 61.498-64.41 135.379h75.926z" fill="#34243a"/><path d="m369.194 141.271c-7.134-8.322-16.669-5.021-21.777-2.272-.755 5.152-1.842 10.609-3.342 16.355-1.296 4.966-1.794 10.089-1.421 15.198.433 5.944.51 15.041-1.438 25.349 13.082 5.95 17.219-.26 18.516-5.183.97-3.684 2.429-7.215 4.419-10.463 5.686-9.287 14.698-27.719 5.043-38.984z" fill="#914330"/><path d="m169.545 170.551c.373-5.109-.125-10.232-1.421-15.198-1.5-5.745-2.586-11.202-3.341-16.355-5.108-2.749-14.644-6.05-21.777 2.272-9.655 11.265-.644 29.697 5.043 38.982 1.99 3.249 3.449 6.779 4.419 10.463 1.296 4.923 5.434 11.133 18.515 5.183-1.948-10.306-1.871-19.402-1.438-25.347z" fill="#914330"/><path d="m344.115 129.174c-11.807-4.728-29.003-15.566-42.526-38.98-3.361-5.819-10.622-8.08-16.732-5.284-10.931 5.002-29.466 12.183-53.557 16.711-.207.188-.419.368-.62.563-4.264 4.115-8.563 9.927-11.065 17.874-1.068 3.393-1.295 7-.756 10.515.809 5.286 1.94 10.863 3.468 16.717 1.406 5.386 1.945 10.941 1.541 16.482-1.318 18.077.389 63.028 45.117 88.487 5.34 3.04 10.897 5.553 16.593 7.558 6.094-1.988 12.028-4.6 17.694-7.854 40.889-23.481 42.495-64.694 41.289-81.356-.37-5.112.113-10.259 1.408-15.218 1.579-6.045 2.7-11.771 3.459-17.158.546-3.88-1.675-7.6-5.313-9.057z" fill="#a5533a"/><g><path d="m269.238 251.287c-44.102-25.102-45.786-69.424-44.486-87.249.398-5.463-.134-10.941-1.52-16.251-1.507-5.773-2.621-11.271-3.419-16.484-.531-3.467-.308-7.023.746-10.368 2.467-7.836 6.706-13.566 10.91-17.624.824-.796 1.695-1.534 2.596-2.225-12.263 2.449-26.036 4.238-41.049 4.685-7.126.212-13.963 3.038-19.093 7.989-3.931 3.795-7.896 9.153-10.203 16.481-.985 3.128-1.194 6.454-.697 9.696.746 4.875 1.789 10.017 3.198 15.415 1.296 4.966 1.794 10.089 1.421 15.198-1.216 16.669.359 58.118 41.602 81.593 23.885 13.595 52.412 15.963 77.919 7.139-6.164-2.057-12.171-4.719-17.925-7.995z" fill="#914330"/></g><path d="m53.111 301.958c-14.409-10.284-28.334-11.173-40.605-7.648 6.966 62.785 37.663 118.404 82.914 157.707 11.405-14.454 21.665-34.14 21.665-58.209 0-54.188-19.085-59.811-63.974-91.85z" fill="#73c3f9"/><path d="m499.506 294.207c-12.183-3.404-25.977-2.433-40.245 7.751-44.889 32.039-63.974 37.662-63.974 91.851 0 23.962 10.169 43.581 21.514 58.017 45.155-39.314 75.773-94.894 82.705-157.619z" fill="#73c3f9"/><g><path d="m306.398 164.004c-1.742 0-3.486-.655-4.829-1.97-3.867-3.786-7.923-3.786-11.789-.001-2.724 2.668-7.095 2.62-9.763-.104-2.667-2.724-2.621-7.095.104-9.763 4.54-4.444 9.918-6.793 15.553-6.793s11.014 2.349 15.554 6.793c2.725 2.668 2.771 7.038.104 9.763-1.352 1.382-3.142 2.075-4.934 2.075z" fill="#7c382a"/></g><g><path d="m227.049 164.004c-1.742 0-3.485-.655-4.829-1.97-3.867-3.786-7.923-3.786-11.789-.001-2.724 2.668-7.095 2.62-9.763-.104-2.667-2.724-2.621-7.095.104-9.763 4.54-4.444 9.918-6.793 15.553-6.793s11.014 2.349 15.554 6.793c2.725 2.668 2.771 7.038.104 9.763-1.353 1.382-3.143 2.075-4.934 2.075z" fill="#7c382a"/></g><path d="m219.927 206.325c.122.363.246.726.408 1.085 2.137 4.732 5.205 8.945 8.946 12.449h53.439c3.74-3.504 6.808-7.717 8.946-12.449.162-.359.286-.722.408-1.085z" fill="#ff4155"/><path d="m256 230.44c10.339 0 19.726-4.029 26.72-10.58-6.992-9.046-16.376-14.612-26.72-14.612s-19.728 5.566-26.72 14.612c6.994 6.551 16.38 10.58 26.72 10.58z" fill="#e80054"/><path d="m281.225 191.325h-50.45c-8.245 0-13.799 8.479-10.472 16h71.394c3.327-7.521-2.227-16-10.472-16z" fill="#deeeff"/></g></svg>