<svg id="Capa_1" enable-background="new 0 0 512 512" height="512" viewBox="0 0 512 512" width="512" xmlns="http://www.w3.org/2000/svg"><g><path d="m495.693 208.779-38.885-14.14c-6.527-2.373-10.872-8.577-10.872-15.522v-14.143c9.974-7.537 16.516-19.381 16.516-32.845v-33.032c0-13.682-11.092-24.774-24.774-24.774h-33.032c-13.682 0-24.774 11.092-24.774 24.774v33.032c0 13.465 6.542 25.308 16.516 32.845v14.143c0 6.945-4.344 13.147-10.871 15.521l-38.677 14.066-8.258 146.393h132.128c22.804 0 41.29-18.486 41.29-41.29v-81.745c0-10.418-6.517-19.723-16.307-23.283z" fill="#eceaec"/><path d="m165.161 208.703c0 .001-.001.001-.001.001l-38.676-14.066c-6.527-2.373-10.871-8.576-10.871-15.521v-14.143c9.974-7.537 16.516-19.381 16.516-32.845v-33.032c0-13.682-11.092-24.774-24.774-24.774h-33.032c-13.682 0-24.774 11.092-24.774 24.774v33.032c0 13.465 6.542 25.308 16.516 32.845v14.143c0 6.946-4.345 13.149-10.872 15.522l-38.885 14.14c-9.791 3.56-16.308 12.865-16.308 23.282v81.745c0 22.804 18.486 41.29 41.29 41.29h132.129z" fill="#eceaec"/><path d="m346.839 272.516v-114.777c0-10.418-6.517-19.723-16.308-23.283l-38.885-14.14c-6.527-2.373-10.872-8.577-10.872-15.522v-14.142c9.974-7.537 16.516-19.381 16.516-32.845v-33.033c0-13.682-11.091-24.774-24.774-24.774h-33.032c-13.682 0-24.774 11.092-24.774 24.774v33.032c0 13.465 6.542 25.308 16.516 32.845v14.143c0 6.945-4.345 13.149-10.872 15.522l-38.885 14.14c-9.79 3.56-16.307 12.865-16.307 23.283v114.777z" fill="#dad8db"/><path d="m346.839 322.065v-33.449l-107.355-90.422c-41.047 0-74.323 33.275-74.323 74.323v49.548c0 20.315-3.998 34.633-8.06 43.937-3.589 8.222.339 17.778 8.537 21.422l57.33 25.48h74.323l49.786-24.893c7.924-3.962 11.618-13.463 8.02-21.559-4.129-9.291-8.258-23.742-8.258-44.387z" fill="#4b3f4e"/><path d="m308.162 400.34c-6.527-2.373-10.872-8.577-10.872-15.522v-7.828h-69.54l-15.75 29.26-49 17.5-6.097 38.702h198.193l-17.38-51.364z" fill="#d19a6e"/><path d="m214.71 384.819c0 6.945-4.345 13.148-10.871 15.522l-29.555 10.747-17.38 23.894 52.58-19.119c8.961-3.259 15.896-10.195 19.342-18.721 2.616-6.471 9.475-10.216 16.419-9.514 3.514.356 7.1.501 10.756.501 15.059 0 29.134-4.096 41.29-11.138v-38.41h-82.581z" fill="#b57f5f"/><path d="m360.95 419.536-23.232-8.448c-14.7 30.367-45.716 51.364-81.717 51.364-29.976 0-56.496-14.557-73.019-36.959l-25.801-5.958c-16.319 5.933-27.181 21.442-27.181 38.805v37.144l10.387 16.516h24.774l9.589-4.25 6.927 4.25h148.646l8.51-6.167 8.005 6.167h24.774c9.121 0 16.516-7.395 16.516-16.516v-37.144c.001-17.363-10.861-32.871-27.178-38.804z" fill="#dad8db"/><g fill="#c8c5c9"><path d="m174.283 411.088-23.231 8.447c-16.318 5.933-27.18 21.442-27.18 38.805v37.144c0 9.121 7.395 16.516 16.516 16.516v-53.661c0-10.417 6.517-19.722 16.307-23.282l26.294-9.561c-3.331-4.506-6.243-9.319-8.706-14.408z"/><path d="m181.677 512v-41.29c0-4.565-3.694-8.258-8.258-8.258s-8.258 3.694-8.258 8.258v41.29z"/><path d="m346.839 512v-41.29c0-4.565-3.694-8.258-8.258-8.258s-8.258 3.694-8.258 8.258v41.29z"/></g><path d="m256 370.75c-36.487 0-53.333-28.715-53.333-65.202v-66.065h119.398v66.065c0 33.636-25.137 61.401-57.65 65.534-2.756.35-5.564-.332-8.415-.332z" fill="#e2a975"/><path d="m256 371.613c2.803 0 5.703-.192 8.414-.531-26.293-3.286-47.908-22.037-55.215-46.839-2.289-7.772 1.413-16.062 8.729-19.542 30.263-14.394 66.46-35.493 100.998-65.217h-128.991v66.065c0 36.486 29.579 66.064 66.065 66.064z" fill="#d19a6e"/><path d="m320.636 215.872-56.11 14.157c14.324 32.331 45.438 55.537 82.312 58.586v-16.099c.001-22.693-10.17-43.011-26.202-56.644z" fill="#5d5360"/><path d="m165.161 308.592c30.392-10.529 97.454-38.189 155.475-92.72-12.965-11.021-29.771-17.679-48.12-17.679h-33.032c-41.047 0-74.323 33.275-74.323 74.323z" fill="#4b3f4e"/><path d="m256 313.806c-11.51 0-21.187 7.849-23.97 18.488-.838 3.203 1.834 6.287 5.144 6.287h37.65c3.311 0 5.982-3.084 5.144-6.287-2.781-10.638-12.458-18.488-23.968-18.488z" fill="#fff"/></g></svg>