<svg id="Capa_1" enable-background="new 0 0 512 512" height="512" viewBox="0 0 512 512" width="512" xmlns="http://www.w3.org/2000/svg"><g><g><g><path d="m235.777 81.739h29.995v119.984h-29.995z" fill="#a65353" transform="matrix(.183 -.983 .983 .183 65.461 362.263)"/></g></g><path d="m309.744 152.759-117.951-21.985-2.74 14.7 117.95 22.002z" fill="#803b2d"/><g id="Laws_6_"><g><path d="m474.522 512h-450v-240h450z" fill="#b3ffb3"/></g><path d="m249.522 272h225v240h-225z" fill="#9ef29e"/><path d="m53.522 301h391v181h-391z" fill="#78d978"/><path d="m249.522 301h195v181h-195z" fill="#56bf67"/><g><path d="m144.522 452h-60v-120h60v30h-30v60h30z" fill="#56bf67"/></g><g><path d="m90.823 17.747-33.9 182.098 147.599 27.301 33.6-182.1z" fill="#ffcb66"/></g><g><g><g><g><path d="m434.21 221.733-162.188-30.263 16.494-88.491 162.202 30.278c24.435 4.547 40.538 28.053 35.991 52.485-4.575 24.453-27.958 40.512-52.499 35.991z" fill="#a65353"/></g></g></g></g></g><g id="Laws_2_"><g><g><path d="m149.066-71.008h29.995v209.999h-29.995z" fill="#a65353" transform="matrix(.183 -.983 .983 .183 100.572 189.044)"/></g></g></g><g><path d="m414.522 452h-60v-30h30v-60h-30v-30h60z" fill="#3aa65f"/></g><g><path d="m249.522 452c-41.353 0-75-26.909-75-60s33.647-60 75-60 75 26.909 75 60-33.647 60-75 60z" fill="#56bf67"/></g><path d="m324.522 392c0-33.091-33.647-60-75-60v120c41.353 0 75-26.909 75-60z" fill="#3aa65f"/><ellipse cx="249.522" cy="392" fill="#b3ffb3" rx="45" ry="30"/><path d="m294.522 392c0-15.981-21.028-30-45-30v60c23.972 0 45-14.019 45-30z" fill="#9ef29e"/><path d="m272.022 191.47 162.188 30.264c24.542 4.521 47.924-11.539 52.5-35.991l-206.448-38.478z" fill="#803b2d"/><path d="m204.522 227.146 16.767-90.873-147.416-27.477-16.95 91.049z" fill="#ffa64d"/><g><g><path d="m116.048 105.937h29.995v210.002h-29.995z" fill="#803b2d" transform="matrix(.183 -.983 .983 .183 -100.346 301.078)"/></g></g></g></svg>