<svg id="flat" height="512" viewBox="0 0 512 512" width="512" xmlns="http://www.w3.org/2000/svg"><path d="m483.66992 157.41-27.66992 34.59-15.89 19.87a53.6476 53.6476 0 0 1 -79.82 4.42l-24.29-24.29v72h-160v-72l-24.29 24.29a53.6476 53.6476 0 0 1 -79.82-4.42l-15.89-19.87-27.66992-34.59a7.74338 7.74338 0 0 1 7.91992-12.35l27.75 6.94 5.27-10.53a9.88545 9.88545 0 0 1 18.73 4.42v22.11l24 16 47.6-47.6a55.99419 55.99419 0 0 1 39.6-16.4h113.6001a55.99419 55.99419 0 0 1 39.6 16.4l47.5999 47.6 24-16v-22.11a9.88545 9.88545 0 0 1 18.73-4.42l5.27 10.53 27.75-6.94a7.47868 7.47868 0 0 1 1.87-.23 7.74357 7.74357 0 0 1 6.04992 12.58z" fill="#ffceb6"/><path d="m456 192-15.89 19.87a53.6476 53.6476 0 0 1 -79.82 4.42l-24.29-24.29v72h-160v-72l-24.29 24.29a53.6476 53.6476 0 0 1 -79.82-4.42l-15.89-19.87 32-24 24 16 47.6-47.6a55.99419 55.99419 0 0 1 39.6-16.4h113.6001a55.99419 55.99419 0 0 1 39.6 16.4l47.5999 47.6 24-16z" fill="#548aff"/><path d="m296 120v48l-40 48-40-48v-48z" fill="#91c0ff"/><path d="m256 128a32 32 0 0 1 -32-32v-16l24-24h40v40a32 32 0 0 1 -32 32z" fill="#ffceb6"/><path d="m288 56 7.80063-3.90031a14.8328 14.8328 0 0 0 8.19937-13.26683 14.8328 14.8328 0 0 0 -14.8328-14.83286h-33.1672a32 32 0 0 0 -32 32v24l24-24z" fill="#c47220"/><path d="m296 168-23.08 27.69-16.92 20.31-16.92-20.31-23.08-27.69 40-40z" fill="#7dafff"/><path d="m264 160 8.92 35.69-16.92 20.31-16.92-20.31 8.92-35.69z" fill="#ef5e3b"/><path d="m248 160-8-16 16-16 16 16-8 16z" fill="#e04f2b"/><path d="m104 264h304v32h-304z" fill="#ea964b"/><path d="m392 296v24l-40 56h-192l-40-56v-24z" fill="#c47220"/><path d="m160 376h192v120h-192z" fill="#db8638"/><path d="m192 408h128v88h-128z" fill="#f7a156"/></svg>