<svg id="Layer_1" enable-background="new 0 0 256 256" height="512" viewBox="0 0 256 256" width="512" xmlns="http://www.w3.org/2000/svg"><g><g><circle cx="128.001" cy="28.598" fill="#ffbb98" r="19"/><path d="m110.523 66.432c-2.652 0-5.195 1.053-7.07 2.928l-50.131 50.122c-4.578 4.589-4.316 12.185.787 16.417 4.451 3.691 11.059 3.146 15.148-.943l37.124-37.124v137.401c0 5.952 4.656 11.058 10.607 11.167 6.063.111 11.013-4.771 11.013-10.808v-159.38-9.78z" fill="#5fcdff"/><path d="m202.681 119.482-42.131-50.122c-1.875-1.875-4.419-2.928-7.07-2.928h-25.478v9.78 109.22 49.801c0 5.952 4.656 11.058 10.607 11.167 6.063.111 11.013-4.771 11.013-10.808v-50.16h21.38l-14.234-87.6 29.978 37.124c4.089 4.089 10.697 4.634 15.148.943 5.103-4.232 5.366-11.828.787-16.417z" fill="#ff4a73"/><path d="m145.481 244.1c-1.89 1.48-4.28 2.35-6.87 2.3-5.95-.11-10.61-5.22-10.61-11.17v-168.8h13.22v168.8c0 3.55 1.66 6.8 4.26 8.87z" fill="#f973a3"/><path d="m128.001 66.43c-2.65 0-5.19 1.05-7.07 2.93l-50.13 50.12c-4.03 4.04-4.31 10.42-.83 14.77l-.71.71c-4.09 4.08-10.7 4.63-15.15.94-5.11-4.23-5.37-11.83-.79-16.42l50.13-50.12c1.88-1.88 4.42-2.93 7.07-2.93z" fill="#73d7f9"/></g><g fill="#5f266d"><path d="m128.001 51.598c12.683 0 23-10.318 23-23s-10.317-23-23-23c-12.682 0-23 10.318-23 23s10.318 23 23 23zm0-38c8.271 0 15 6.729 15 15s-6.729 15-15 15-15-6.729-15-15 6.729-15 15-15z"/><path d="m183.917 137.785c5.585 5.585 14.604 6.107 20.53 1.193 6.808-5.645 7.345-15.872 1.194-22.19l-42.03-50.001c-.073-.088-.151-.173-.233-.255-2.644-2.644-6.159-4.1-9.898-4.1-21.194 0-19.568 0-42.957 0-3.739 0-7.254 1.456-9.898 4.1l-50.135 50.124c-2.996 3.002-4.599 7.155-4.399 11.394.199 4.229 2.191 8.212 5.465 10.927 5.926 4.916 14.946 4.393 20.53-1.193l30.295-30.296v127.745c0 8.216 6.52 15.019 14.534 15.166.094.001.187.002.28.002 3.905 0 7.579-1.5 10.371-4.242.177-.174.334-.362.501-.543 2.646 2.872 6.357 4.707 10.468 4.782.094.001.187.002.28.002 3.905 0 7.578-1.5 10.371-4.242 2.859-2.808 4.435-6.561 4.435-10.568v-46.16h17.38c2.469 0 4.343-2.215 3.948-4.642l-11.813-72.705 20.497 25.384c.089.112.184.218.284.318zm-59.916 97.448v.358c0 1.843-.724 3.568-2.04 4.86-1.314 1.291-3.055 1.995-4.9 1.949-3.684-.067-6.68-3.282-6.68-7.167v-137.401c0-1.618-.975-3.077-2.469-3.695-.495-.205-1.015-.305-1.53-.305-1.041 0-2.064.406-2.83 1.171l-37.124 37.125c-2.694 2.695-6.985 2.999-9.767.692-1.569-1.301-2.485-3.128-2.58-5.146-.094-1.997.661-3.953 2.067-5.363l50.131-50.122c1.133-1.133 2.64-1.757 4.242-1.757h13.479v164.801zm28.819-136.76 13.479 82.958h-16.678c-2.209 0-4 1.791-4 4v50.16c0 1.843-.725 3.568-2.04 4.86-1.313 1.291-3.049 2-4.899 1.949-3.684-.067-6.681-3.282-6.681-7.167v-164.801h21.479c1.529 0 3.027.6 4.134 1.651l42.006 49.972c.072.087.149.171.229.251 2.87 2.876 2.834 7.742-.509 10.513-2.736 2.27-6.931 2.011-9.63-.559l-29.83-36.942c-1.141-1.412-3.087-1.878-4.744-1.139-1.656.741-2.607 2.503-2.316 4.294z"/></g></g></svg>